<svg id="visual" viewBox="0 0 900 600" width="900" height="600" xmlns="http://www.w3.org/2000/svg" xmlns:xlink="http://www.w3.org/1999/xlink" version="1.1"><g transform="translate(442.3707893399692 299.8984214972503)"><path d="M154.9 -207.2C202.5 -178.7 243.9 -135.7 240.8 -91C237.8 -46.4 190.2 0 169.6 52.5C149 105.1 155.3 163.8 131.5 198.7C107.8 233.7 53.9 244.8 2.4 241.5C-49 238.1 -98 220.2 -136.6 190.1C-175.3 160 -203.7 117.7 -217.1 71.7C-230.5 25.6 -228.9 -24.1 -207.7 -60.8C-186.6 -97.5 -145.9 -121.2 -108 -152.9C-70.1 -184.5 -35.1 -224.3 9.3 -237.1C53.7 -249.9 107.4 -235.8 154.9 -207.2" fill="#B0D9EF"></path></g></svg>