<svg id="visual" viewBox="0 0 900 600" width="900" height="600" xmlns="http://www.w3.org/2000/svg" xmlns:xlink="http://www.w3.org/1999/xlink" version="1.1"><rect x="0" y="0" width="900" height="600" fill="#004C97"></rect><g fill="none" stroke="#009CDE" stroke-width="2"><circle r="18" cx="498" cy="155"></circle><circle r="7" cx="159" cy="375"></circle><circle r="9" cx="363" cy="51"></circle><circle r="7" cx="752" cy="167"></circle><circle r="14" cx="275" cy="100"></circle><circle r="15" cx="391" cy="84"></circle><circle r="7" cx="66" cy="435"></circle><circle r="11" cx="482" cy="230"></circle><circle r="14" cx="584" cy="172"></circle><circle r="9" cx="407" cy="520"></circle><circle r="14" cx="273" cy="494"></circle><circle r="7" cx="471" cy="79"></circle><circle r="9" cx="198" cy="191"></circle><circle r="6" cx="650" cy="535"></circle><circle r="9" cx="721" cy="517"></circle><circle r="9" cx="414" cy="204"></circle><circle r="10" cx="171" cy="321"></circle><circle r="6" cx="49" cy="152"></circle><circle r="11" cx="62" cy="502"></circle><circle r="8" cx="537" cy="111"></circle><circle r="12" cx="681" cy="341"></circle><circle r="15" cx="274" cy="248"></circle><circle r="6" cx="466" cy="480"></circle><circle r="10" cx="230" cy="514"></circle><circle r="11" cx="321" cy="77"></circle><circle r="13" cx="780" cy="481"></circle><circle r="12" cx="784" cy="112"></circle><circle r="13" cx="186" cy="43"></circle><circle r="11" cx="113" cy="522"></circle><circle r="8" cx="661" cy="259"></circle><circle r="11" cx="284" cy="305"></circle><circle r="15" cx="60" cy="388"></circle><circle r="14" cx="616" cy="317"></circle><circle r="6" cx="54" cy="110"></circle><circle r="10" cx="809" cy="508"></circle><circle r="13" cx="190" cy="282"></circle><circle r="14" cx="326" cy="547"></circle><circle r="16" cx="543" cy="397"></circle><circle r="16" cx="604" cy="79"></circle><circle r="13" cx="373" cy="463"></circle><circle r="8" cx="346" cy="182"></circle><circle r="15" cx="693" cy="426"></circle><circle r="10" cx="386" cy="141"></circle><circle r="15" cx="794" cy="439"></circle><circle r="9" cx="125" cy="59"></circle><circle r="6" cx="572" cy="507"></circle><circle r="7" cx="517" cy="336"></circle></g></svg>