<svg id="visual" viewBox="0 0 900 600" width="900" height="600" xmlns="http://www.w3.org/2000/svg" xmlns:xlink="http://www.w3.org/1999/xlink" version="1.1"><rect x="0" y="0" width="900" height="600" fill="#004C97"></rect><g fill="none" stroke="#009CDE" stroke-width="2"><circle r="18" cx="742" cy="241"></circle><circle r="7" cx="153" cy="299"></circle><circle r="16" cx="628" cy="254"></circle><circle r="8" cx="122" cy="506"></circle><circle r="10" cx="565" cy="277"></circle><circle r="10" cx="776" cy="175"></circle><circle r="16" cx="651" cy="183"></circle><circle r="13" cx="139" cy="36"></circle><circle r="16" cx="43" cy="30"></circle><circle r="10" cx="56" cy="187"></circle><circle r="11" cx="713" cy="32"></circle><circle r="12" cx="686" cy="373"></circle><circle r="14" cx="651" cy="470"></circle><circle r="10" cx="535" cy="496"></circle><circle r="16" cx="863" cy="415"></circle><circle r="6" cx="36" cy="145"></circle><circle r="14" cx="807" cy="84"></circle><circle r="11" cx="656" cy="311"></circle><circle r="10" cx="233" cy="279"></circle><circle r="15" cx="253" cy="545"></circle><circle r="16" cx="675" cy="216"></circle><circle r="13" cx="146" cy="156"></circle><circle r="13" cx="188" cy="342"></circle><circle r="14" cx="53" cy="462"></circle><circle r="8" cx="261" cy="328"></circle><circle r="10" cx="430" cy="535"></circle><circle r="6" cx="504" cy="47"></circle><circle r="12" cx="786" cy="41"></circle><circle r="15" cx="606" cy="411"></circle><circle r="12" cx="144" cy="538"></circle><circle r="14" cx="489" cy="570"></circle><circle r="6" cx="616" cy="45"></circle><circle r="8" cx="139" cy="425"></circle><circle r="7" cx="783" cy="363"></circle><circle r="10" cx="287" cy="430"></circle><circle r="6" cx="851" cy="299"></circle><circle r="6" cx="674" cy="69"></circle><circle r="16" cx="254" cy="166"></circle><circle r="13" cx="611" cy="206"></circle><circle r="7" cx="739" cy="421"></circle><circle r="9" cx="513" cy="461"></circle><circle r="10" cx="501" cy="151"></circle><circle r="7" cx="432" cy="129"></circle><circle r="6" cx="678" cy="556"></circle><circle r="11" cx="55" cy="565"></circle><circle r="9" cx="855" cy="219"></circle><circle r="14" cx="729" cy="526"></circle></g></svg>